<svg width="63" height="63" viewBox="0 0 63 63" fill="none" xmlns="http://www.w3.org/2000/svg">
<path d="M31.5 5.25C26.3083 5.25 21.2331 6.78954 16.9163 9.67392C12.5995 12.5583 9.23497 16.658 7.24817 21.4546C5.26137 26.2511 4.74154 31.5291 5.7544 36.6211C6.76726 41.7131 9.26733 46.3904 12.9385 50.0616C16.6096 53.7327 21.2869 56.2328 26.3789 57.2456C31.4709 58.2585 36.7489 57.7386 41.5455 55.7518C46.342 53.765 50.4417 50.4005 53.3261 46.0837C56.2105 41.7669 57.75 36.6918 57.75 31.5C57.75 28.0528 57.071 24.6394 55.7519 21.4546C54.4327 18.2698 52.4991 15.376 50.0616 12.9384C47.624 10.5009 44.7303 8.56735 41.5455 7.24816C38.3607 5.92898 34.9472 5.25 31.5 5.25V5.25ZM42.7875 25.2262L30.7913 40.9762C30.5467 41.2939 30.2327 41.5513 29.8732 41.7288C29.5137 41.9063 29.1184 41.999 28.7175 42C28.3188 42.0021 27.9248 41.9134 27.5655 41.7406C27.2062 41.5678 26.891 41.3153 26.6438 41.0025L20.2388 32.8388C20.0268 32.5664 19.8705 32.255 19.7788 31.9223C19.6872 31.5895 19.662 31.242 19.7046 30.8995C19.7473 30.5571 19.857 30.2264 20.0274 29.9263C20.1979 29.6262 20.4258 29.3626 20.6981 29.1506C21.2481 28.7225 21.9457 28.5303 22.6373 28.6165C22.9798 28.6591 23.3105 28.7688 23.6106 28.9393C23.9107 29.1098 24.1743 29.3377 24.3863 29.61L28.665 35.07L38.5875 21.945C38.7978 21.6692 39.0603 21.4376 39.3601 21.2633C39.6599 21.0889 39.9912 20.9754 40.3348 20.9291C40.6785 20.8828 41.028 20.9046 41.3632 20.9933C41.6985 21.0821 42.013 21.236 42.2888 21.4463C42.5645 21.6565 42.7962 21.9191 42.9705 22.2189C43.1448 22.5187 43.2584 22.8499 43.3047 23.1936C43.351 23.5373 43.3292 23.8867 43.2404 24.222C43.1517 24.5572 42.9978 24.8717 42.7875 25.1475V25.2262Z" fill="#7A9D40"/>
<path d="M43.2875 25.395L43.1853 25.5292L31.189 41.2792L31.1875 41.2812C30.8963 41.6594 30.5225 41.9659 30.0945 42.1772C29.6666 42.3884 29.196 42.4989 28.7187 42.5M43.2875 25.395L28.7175 42M43.2875 25.395V25.3083V25.395ZM28.7187 42.5L28.7175 42M28.7187 42.5C28.7192 42.5 28.7197 42.5 28.7202 42.5L28.7175 42M28.7187 42.5C28.2446 42.5023 27.7761 42.3967 27.3488 42.1912C26.921 41.9854 26.5457 41.6849 26.2515 41.3125L26.2504 41.3111L19.8454 33.1474L19.8442 33.1459C19.5919 32.8218 19.4059 32.4511 19.2968 32.0551C19.1877 31.659 19.1577 31.2454 19.2084 30.8377C19.2592 30.4301 19.3898 30.0365 19.5927 29.6793C19.7956 29.3221 20.0669 29.0084 20.391 28.7561C21.0456 28.2465 21.8759 28.0178 22.6991 28.1203C23.1068 28.1711 23.5004 28.3016 23.8576 28.5045C24.2146 28.7073 24.5281 28.9784 24.7804 29.3023L24.7798 29.3016L24.3863 29.61M28.7175 42C28.3188 42.0021 27.9248 41.9134 27.5655 41.7406C27.2062 41.5678 26.891 41.3153 26.6438 41.0025L20.2388 32.8388C20.0268 32.5664 19.8705 32.255 19.7788 31.9223C19.6872 31.5895 19.662 31.242 19.7046 30.8995C19.7473 30.5571 19.857 30.2264 20.0274 29.9263C20.1979 29.6262 20.4258 29.3626 20.6981 29.1506C21.2481 28.7225 21.9457 28.5303 22.6373 28.6165C22.9798 28.6591 23.3105 28.7688 23.6106 28.9393C23.9107 29.1098 24.1743 29.3377 24.3863 29.61M24.3863 29.61L24.7808 29.3029L24.3863 29.61ZM28.346 34.6629L28.665 35.07L28.9769 34.6574L28.6579 34.2503L28.346 34.6629ZM17.1941 10.0897C21.4286 7.26021 26.4071 5.75 31.5 5.75C34.8815 5.75 38.23 6.41604 41.3541 7.7101C44.4782 9.00416 47.3169 10.9009 49.708 13.292C52.0991 15.6831 53.9959 18.5218 55.2899 21.6459C56.584 24.77 57.25 28.1185 57.25 31.5C57.25 36.5929 55.7398 41.5714 52.9104 45.8059C50.0809 50.0405 46.0593 53.3409 41.3541 55.2899C36.6489 57.2389 31.4714 57.7488 26.4764 56.7552C21.4814 55.7617 16.8932 53.3092 13.292 49.708C9.69081 46.1068 7.23836 41.5186 6.24479 36.5236C5.25122 31.5286 5.76116 26.3511 7.71011 21.6459C9.65907 16.9407 12.9595 12.9191 17.1941 10.0897Z" stroke="white" stroke-opacity="0.3"/>
</svg>
