<svg width="30" height="30" viewBox="0 0 30 30" fill="none" xmlns="http://www.w3.org/2000/svg">
<path d="M17.4706 13.6363V21.8181M1.4559 6.81807H27.6618H1.4559ZM24.75 6.81807V25.909C24.75 26.6323 24.4432 27.326 23.8972 27.8375C23.3511 28.3489 22.6105 28.6363 21.8383 28.6363H7.27943C6.50718 28.6363 5.76656 28.3489 5.2205 27.8375C4.67444 27.326 4.36767 26.6323 4.36767 25.909V6.81807H24.75ZM8.73531 6.81807V4.0908C8.73531 3.36748 9.04209 2.67379 9.58815 2.16233C10.1342 1.65086 10.8748 1.36353 11.6471 1.36353L17.4706 1.36353C18.2429 1.36353 18.9835 1.65086 19.5295 2.16233C20.0756 2.67379 20.3824 3.36748 20.3824 4.0908V6.81807H8.73531ZM11.6471 13.6363V21.8181V13.6363Z" stroke="white" stroke-width="2" stroke-linecap="round" stroke-linejoin="round"/>
</svg>
