<svg width="30" height="30" viewBox="0 0 30 30" fill="none" xmlns="http://www.w3.org/2000/svg">
<g clip-path="url(#clip0_26_149)">
<path d="M14.0548 17.2916L18.6384 11.0449C18.6386 11.0445 18.6389 11.0442 18.6391 11.0438C18.6587 11.0177 18.6816 10.9975 18.7055 10.9832L18.1916 10.1254L18.7055 10.9832C18.7297 10.9688 18.7549 10.9602 18.7797 10.9567C18.8044 10.9533 18.8296 10.9549 18.8543 10.9616C18.8791 10.9683 18.9041 10.9805 18.9274 10.9989L19.5452 10.2125L18.9274 10.9989C18.9509 11.0173 18.9724 11.0417 18.9894 11.0719C19.0065 11.1021 19.0183 11.1369 19.0232 11.1743C19.0281 11.2116 19.0257 11.2495 19.0165 11.2855C19.0073 11.3213 18.9917 11.3534 18.9719 11.3801L18.7757 11.6452V11.683L13.4302 18.914C13.4298 18.9144 13.4295 18.9148 13.4292 18.9153C13.407 18.9445 13.3806 18.9658 13.3536 18.9795C13.3263 18.9934 13.2979 18.9999 13.2703 19L13.2672 19C13.2398 19.0002 13.2116 18.994 13.1844 18.9805C13.1573 18.9671 13.1309 18.9462 13.1085 18.9173C13.1083 18.917 13.1081 18.9167 13.1078 18.9164L10.1519 15.0347C10.1517 15.0343 10.1514 15.034 10.1512 15.0337C10.132 15.0081 10.1168 14.9774 10.1075 14.9428C10.0982 14.9078 10.0955 14.8707 10.0999 14.8341C10.1044 14.7975 10.1156 14.7633 10.1321 14.7334L9.25636 14.2506L10.1321 14.7334C10.1485 14.7037 10.1693 14.6796 10.192 14.6613C10.2371 14.6252 10.2883 14.6127 10.3353 14.6188C10.3593 14.6218 10.3838 14.6299 10.4073 14.6437C10.4309 14.6575 10.4536 14.6771 10.4731 14.7029L10.475 14.7054L12.4526 17.3054L13.2629 18.3708L14.0548 17.2916ZM14.5588 1.5C11.9547 1.5 9.41166 2.29576 7.25139 3.78294C5.0915 5.26987 3.41249 7.38011 2.42215 9.84344C1.43191 12.3065 1.17325 15.0152 1.67771 17.6282C2.18219 20.2413 3.42812 22.6455 5.26236 24.5353C7.09692 26.4255 9.43796 27.7162 11.9911 28.2395C14.5445 28.7628 17.1909 28.4939 19.5942 27.4682C21.9971 26.4427 24.0461 24.7082 25.4855 22.4887C26.9247 20.2696 27.6912 17.6635 27.6912 15C27.6912 13.2312 27.3531 11.4791 26.6955 9.84344C26.0379 8.20773 25.0732 6.71957 23.8553 5.46469C22.6372 4.20974 21.1896 3.21262 19.5942 2.53176C17.9987 1.85087 16.2876 1.5 14.5588 1.5Z" stroke="#7A9D40" stroke-opacity="0.72" stroke-width="2"/>
</g>
<defs>
<clipPath id="clip0_26_149">
<rect width="29.1176" height="30" fill="white"/>
</clipPath>
</defs>
</svg>
