<svg width="30" height="30" viewBox="0 0 30 30" fill="none" xmlns="http://www.w3.org/2000/svg">
<g clip-path="url(#clip0_26_154)">
<path d="M18.2315 13.6364V21.8182M2.21677 6.81819H28.4226H2.21677ZM25.5109 6.81819V25.9091C25.5109 26.6324 25.2041 27.3261 24.658 27.8376C24.112 28.349 23.3714 28.6364 22.5991 28.6364H8.0403C7.26805 28.6364 6.52743 28.349 5.98137 27.8376C5.43531 27.3261 5.12853 26.6324 5.12853 25.9091V6.81819H25.5109ZM9.49618 6.81819V4.09092C9.49618 3.3676 9.80295 2.67391 10.349 2.16245C10.8951 1.65098 11.6357 1.36365 12.4079 1.36365L18.2315 1.36365C19.0037 1.36365 19.7443 1.65098 20.2904 2.16245C20.8365 2.67391 21.1432 3.3676 21.1432 4.09092V6.81819H9.49618ZM12.4079 13.6364V21.8182V13.6364Z" stroke="#432C26" stroke-opacity="0.61" stroke-width="2" stroke-linecap="round" stroke-linejoin="round"/>
</g>
<defs>
<clipPath id="clip0_26_154">
<rect width="29.1176" height="30" fill="white" transform="translate(0.760864)"/>
</clipPath>
</defs>
</svg>
